# xmcd CD database file
#
# Track frame offsets:
#	150
#	5144
#	31117
#	59102
#	84256
#	112353
#	136608
#	173245
#	203608
#	247500
#	269084
#
# Disc length: 3713 seconds
#
# Revision: 0
# Processed by: cddbd v1.5.2PL0 Copyright (c) Steve Scherf et al.
# Submitted via: CDex 1.51
#
DISCID=920e7f0b
DTITLE=NUO - Dixie and the Gang
DYEAR=2007
DGENRE=Jazz
TTITLE0=Panoptikum jede
TTITLE1=Dixie
TTITLE2=Underpop
TTITLE3=Frutti di Mare
TTITLE4=Metaxa
TTITLE5=Minonky
TTITLE6=Orbit Folk
TTITLE7=Honolulu - Bucuresti
TTITLE8=Pahru Exploited
TTITLE9=Tatort
TTITLE10=Panoptikum jede pryc
EXTD=YEAR: 2007
EXTT0=
EXTT1=
EXTT2=
EXTT3=
EXTT4=
EXTT5=
EXTT6=
EXTT7=
EXTT8=
EXTT9=
EXTT10=
PLAYORDER=
